<?xml version="1.0" standalone="no"?><!DOCTYPE svg PUBLIC "-//W3C//DTD SVG 1.1//EN" "http://www.w3.org/Graphics/SVG/1.1/DTD/svg11.dtd"><svg t="1493204489979" class="icon" style="" viewBox="0 0 1024 1024" version="1.1" xmlns="http://www.w3.org/2000/svg" p-id="2388" xmlns:xlink="http://www.w3.org/1999/xlink" width="200" height="200"><defs><style type="text/css"></style></defs><path d="M90.0352 203.633664c-13.216768 0-23.954432 10.73664-23.954432 23.929856l0 569.376768c0 6.760448 2.870272 13.253632 7.91552 17.80224 4.984832 4.473856 11.101184 6.735872 18.518016 6.030336 0.4864-0.048128 53.087232-5.3504 121.945088-5.3504 70.4512 0 169.293824 5.665792 240.098304 32.587776 2.735104 1.04448 5.593088 1.580032 8.4992 1.580032 3.818496 0 7.380992-1.168384 10.663936-2.845696 7.003136 2.72384 14.01856 5.569536 21.059584 8.65792 2.588672 1.14176 5.337088 1.726464 8.158208 1.726464 3.574784 0 7.016448-1.216512 10.15296-3.040256 3.137536 1.823744 6.5792 3.040256 10.15296 3.040256 2.808832 0 5.568512-0.58368 8.134656-1.701888 7.04-3.111936 14.08-5.957632 21.08416-8.682496 3.270656 1.678336 6.846464 2.845696 10.651648 2.845696 2.9184 0 5.763072-0.535552 8.522752-1.580032 70.779904-26.921984 169.622528-32.587776 240.086016-32.587776 68.857856 0 121.458688 5.302272 122.017792 5.3504 6.846464 0.608256 13.461504-1.55648 18.4576-6.030336 5.033984-4.547584 7.904256-11.041792 7.904256-17.80224L960.103424 227.56352c0-13.193216-10.748928-23.929856-23.954432-23.929856-13.193216 0-23.942144 10.73664-23.942144 23.929856l0 543.356928c-16.18432-1.168384-37.571584-2.36032-62.389248-3.040256L849.8176 195.900416c0-12.329984-8.438784-22.5792-19.637248-23.831552-17.765376-1.957888-35.90656-2.966528-53.926912-2.966528-147.187712 0-250.591232 65.161216-263.163904 73.46688-12.583936-8.30464-115.975168-73.46688-263.16288-73.46688-18.020352 0-36.161536 1.009664-53.9392 2.966528-11.186176 1.252352-19.62496 11.502592-19.62496 23.831552L176.362496 767.880192c-24.81664 0.679936-46.205952 1.871872-62.401536 3.040256L113.96096 227.56352C113.965056 214.370304 103.228416 203.633664 90.0352 203.633664zM545.097728 277.902336c28.392448-16.37888 116.31616-60.894208 231.159808-60.894208 9.959424 0 19.989504 0.340992 29.888512 0.985088L806.146048 760.364032c-11.54048-0.704512-23.673856-1.07008-36.161536-1.07008-54.85056 0-137.715712 6.956032-224.88576 39.47008L545.098752 277.902336zM220.04224 217.99424c9.885696-0.644096 19.9168-0.985088 29.888512-0.985088 114.832384 0 202.768384 44.515328 231.159808 60.894208L481.09056 798.764032c-87.182336-32.514048-170.0352-39.47008-224.88576-39.47008-12.48768 0-24.623104 0.365568-36.161536 1.07008L220.043264 217.99424z" p-id="2389"></path></svg>