<?xml version="1.0" standalone="no"?><!DOCTYPE svg PUBLIC "-//W3C//DTD SVG 1.1//EN" "http://www.w3.org/Graphics/SVG/1.1/DTD/svg11.dtd"><svg t="1493195692373" class="icon" style="" viewBox="0 0 1024 1024" version="1.1" xmlns="http://www.w3.org/2000/svg" p-id="5096" xmlns:xlink="http://www.w3.org/1999/xlink" width="200" height="200"><defs><style type="text/css"></style></defs><path d="M562.320571 131.770116c-14.219863-1.650593-28.664853-2.476401-43.273573-2.476401-209.422683 0-381.149836 172.612313-389.202233 390.087393l17.155728-25.301246c-47.167253 19.569708-78.775134 67.267033-78.775134 121.087822 0 71.951729 55.957453 130.289392 124.998899 130.289392 3.461845 0 6.900154-0.144286 10.311857-0.434905l-2.217505-28.316929-23.89113 13.675464c67.937299 128.96114 197.877743 210.852242 341.620541 210.852242 141.92029 0 270.473131-79.830163 339.131861-206.209502l-23.413246 14.409175c68.459185-0.800225 123.603109-58.861596 123.603109-130.288368 0-47.578622-24.721031-90.684372-63.778582-113.574708l13.895475 24.406876c-1.029446-84.965114-27.204595-165.822676-74.195839-233.178737-8.853645-12.69002-25.900903-15.496949-38.075177-6.268774-12.173251 9.228175-14.866592 26.996864-6.012947 39.686884 40.406269 57.918108 62.890352 127.370923 63.774489 200.476941l0.198521 16.378016 13.697977 8.027837c22.056342 12.927427 35.980469 37.207413 35.980469 64.046688 0 40.281425-31.094182 73.02006-69.700455 73.471338l-15.683191 0.183172-7.728008 14.227026c-59.075467 108.74368-169.615049 177.38706-291.695478 177.38706-123.648135 0-235.380892-70.416769-293.837258-181.381024l-8.502651-16.139585-17.607006 1.49812c-1.930979 0.163729-3.888564 0.246617-5.877871 0.246617-38.930661 0-70.485331-32.895201-70.485331-73.469292 0-30.357402 17.829064-57.262168 44.423769-68.295456l16.47216-6.833639 0.683569-18.466584c6.92369-186.996928 154.62259-335.457168 334.729597-335.457168 12.606109 0 25.038256 0.710175 37.242206 2.127454 14.96176 1.736551 28.440749-9.498328 30.106692-25.092491C588.059791 147.555637 577.282331 133.506666 562.320571 131.770116L562.320571 131.770116zM699.793572 644.468011c-1.626034 3.412726-3.429099 6.91448-5.40101 10.509355-36.896328 67.23531-105.432261 109.572558-181.097568 109.572558-79.772858 0-151.429875-47.107901-186.540534-120.171963-6.741541-14.029528-23.11751-19.704784-36.577057-12.678764-13.459546 7.027044-18.904559 24.096814-12.163017 38.125319 44.262086 92.110861 134.671189 151.546531 235.280608 151.546531 95.417163 0 181.908026-53.428863 228.41013-138.173966 2.487657-4.527107 4.79419-9.010211 6.913457-13.46057 6.694469-14.053064 1.192152-31.103392-12.289907-38.081317C722.844567 624.677269 706.488041 630.413923 699.793572 644.468011L699.793572 644.468011zM642.947889 122.187877c18.981307 0.341784 37.104059 8.147564 50.934043 22.38073 29.187763 30.051433 29.459962 79.100546 0.589424 109.527532-28.845978 30.441313-75.908854 30.729885-105.10378 0.652869-10.706853-11.029194-27.963888-10.924817-38.545898 0.234337s-10.480702 29.147854 0.224104 40.178071c50.610678 52.140521 132.199904 51.638077 182.194552-1.122567 50.039673-52.734038 49.569976-137.781016-1.055029-189.900048-23.8942-24.589025-55.426357-38.169321-88.293929-38.761815-15.051811-0.271176-27.465538 12.226462-27.725458 27.91477C615.904976 108.978017 627.896078 121.9167 642.947889 122.187877L642.947889 122.187877zM716.171588 479.369835c10.087753 10.31288 16.34834 24.680099 16.34834 40.566928 0 31.373545-24.414039 56.8201-54.512544 56.8201-30.097482 0-54.512544-25.446555-54.512544-56.8201 0-31.373545 24.414039-56.8201 54.512544-56.8201C692.865789 463.116663 706.336592 469.316875 716.171588 479.369835zM391.355781 479.369835c10.088776 10.31288 16.349363 24.680099 16.349363 40.566928 0 31.373545-24.414039 56.8201-54.513568 56.8201-30.098505 0-54.512544-25.446555-54.512544-56.8201 0-31.373545 24.414039-56.8201 54.512544-56.8201C368.048959 463.116663 381.521808 469.316875 391.355781 479.369835z" p-id="5097"></path></svg>