<?xml version="1.0" standalone="no"?><!DOCTYPE svg PUBLIC "-//W3C//DTD SVG 1.1//EN" "http://www.w3.org/Graphics/SVG/1.1/DTD/svg11.dtd"><svg t="1493195987712" class="icon" style="" viewBox="0 0 1024 1024" version="1.1" xmlns="http://www.w3.org/2000/svg" p-id="11933" xmlns:xlink="http://www.w3.org/1999/xlink" width="200" height="200"><defs><style type="text/css"></style></defs><path d="M512.864182 645.26005c-17.573237 0-34.646078-4.148483-48.072879-11.685133L98.526479 428.075589c-19.678178-11.006681-30.989805-28.656667-30.989805-48.406476 0-19.748786 11.30037-37.410028 31.012318-48.453548l366.242312-205.462488c26.78197-15.063067 69.26862-15.09172 96.170317 0.005117l366.240265 205.469652c19.700691 11.05273 30.987758 28.716019 30.977525 48.458665-0.01228 19.736507-11.31265 37.375236-31.001061 48.405453l-366.241288 205.480908C547.523563 641.105427 530.450722 645.26005 512.864182 645.26005zM158.951687 379.652739l340.965625 191.31221c2.221598 1.24434 7.082302 2.499937 12.94687 2.499937 6.707772 0 11.289114-1.571798 12.936637-2.494821l340.978928-191.311187L525.811052 188.364065c-2.230808-1.25048-7.093559-2.5071-12.94687-2.5071-6.694469 0-11.276834 1.565658-12.923334 2.494821L158.951687 379.652739z" p-id="11934"></path><path d="M512.968559 907.887492c-151.312194 0-304.974923-48.353264-311.85768-140.854005-0.326435-1.927909-0.490164-3.90289-0.490164-5.92392L200.620715 488.128313c0-19.824511 16.066931-35.898605 35.897581-35.898605s35.897581 16.074094 35.897581 35.898605l0 268.692578c0.151449 1.285273 0.245593 2.580778 0.255827 3.901867 0.291642 26.572192 91.742471 75.369571 240.296855 75.369571 148.555407 0 239.994979-48.798403 240.273319-75.369571 0.013303-0.491187 0.025583-0.970094 0.048095-1.461281L753.289973 488.128313c0-19.824511 16.067954-35.898605 35.896558-35.898605 19.831674 0 35.896558 16.074094 35.896558 35.898605l0 272.981255c0 0.945535-0.034792 1.879813-0.105401 2.802836C821.367465 858.447477 665.966139 907.887492 512.968559 907.887492z" p-id="11935"></path><path d="M917.117203 814.533314c-19.828604 0-35.897581-16.065907-35.897581-35.896558L881.219621 493.64291c0-19.824511 16.068977-35.897581 35.897581-35.897581 19.831674 0 35.896558 16.07307 35.896558 35.897581L953.013761 778.636756C953.014784 798.466384 936.948877 814.533314 917.117203 814.533314z" p-id="11936"></path></svg>