<?xml version="1.0" standalone="no"?><!DOCTYPE svg PUBLIC "-//W3C//DTD SVG 1.1//EN" "http://www.w3.org/Graphics/SVG/1.1/DTD/svg11.dtd"><svg t="1493196397200" class="icon" style="" viewBox="0 0 1024 1024" version="1.1" xmlns="http://www.w3.org/2000/svg" p-id="21969" xmlns:xlink="http://www.w3.org/1999/xlink" width="200" height="200"><defs><style type="text/css"></style></defs><path d="M923.8 811H496.9c-21.2 26.1-47.4 48.5-78.6 66h505.6c18.7 0 32.5-15 32.5-32.4-0.1-18.6-15.1-33.6-32.6-33.6z m-528-526.3h528.1c18.7 0 32.5-14.9 32.5-32.3s-15-32.3-32.5-32.3H395.8c-18.7 0-32.4 14.9-32.4 32.3-0.1 17.4 13.7 32.3 32.4 32.3z m528 428.1h-377c-6.2 23.6-15 44.8-27.5 65.9h404.5c18.7 0 32.5-14.9 32.5-32.3 0-18.7-15-33.6-32.5-33.6z m-395.7-66c0-126.9-103.6-230.2-231-230.2-127.3 0-231 103.3-231 230.2 0 126.9 103.6 230.2 231 230.2s231-103.3 231-230.2z m-99.9-2.5H312.1v57.2h116.1v28.6H312.1v57.2h-27.5v-57.2h-116v-28.6h116.1v-57.2H168.6v-28.6h79.9l-51.2-68.4 23.7-17.5 51.2 68.4-23.7 17.5h97.4l-22.5-17.5 51.2-68.4 23.7 17.5-49.9 68.4h79.9l-0.1 28.6z m495.6-227.7H419.5c30 16.2 56.2 38.6 78.7 66h425.7c18.7 0 32.5-14.9 32.5-32.4-0.1-18.7-15.1-33.6-32.6-33.6z m0 197.8H553.1c1.3 11.2 2.5 21.2 2.5 32.4s-1.2 22.4-2.5 32.3h370.8c18.7 0 32.5-14.9 32.5-32.3-0.1-18.7-15.1-32.4-32.6-32.4z m0-296.1h-528c-18.7 0-32.4 14.9-32.4 32.3 0 18.7 15 32.4 32.4 32.4h528.1c18.7 0 32.5-15 32.5-32.4-0.1-17.4-15.1-32.3-32.6-32.3z m0 196.6H519.4c11.2 19.9 21.2 42.3 27.5 66h377c18.7 0 32.5-14.9 32.5-32.3-0.1-18.8-15.1-33.7-32.6-33.7z" p-id="21970"></path></svg>