<?xml version="1.0" standalone="no"?><!DOCTYPE svg PUBLIC "-//W3C//DTD SVG 1.1//EN" "http://www.w3.org/Graphics/SVG/1.1/DTD/svg11.dtd"><svg t="1493196461017" class="icon" style="" viewBox="0 0 1024 1024" version="1.1" xmlns="http://www.w3.org/2000/svg" p-id="24614" xmlns:xlink="http://www.w3.org/1999/xlink" width="200" height="200"><defs><style type="text/css"></style></defs><path d="M877.54544 800.676725c0 0 81.233116 0 81.233116-81.233116L958.778556 150.816914c0-81.233116-81.233116-81.233116-81.233116-81.233116L146.453537 69.583798c0 0-81.232093 0-81.232093 81.233116l0 568.626695c0 81.233116 81.232093 81.233116 81.232093 81.233116l235.574297 0 0 81.232093-73.110111 81.232093 400.708288 0L625.725134 881.908818l0-81.232093L877.54544 800.676725 877.54544 800.676725zM105.83749 152.441924c0-42.241057 40.616046-42.241057 40.616046-42.241057l731.091904 0c0 0 40.61707 0 40.61707 42.241057l0 445.153546L105.83749 597.59547 105.83749 152.441924 105.83749 152.441924zM397.990387 918.016177l24.369014-36.107359 0-81.232093 162.748664 0 0 81.232093 33.590026 36.107359L397.990387 918.016177 397.990387 918.016177zM146.453537 760.059656c0 0-40.616046 0-40.616046-42.241057l0-79.607082 812.323996 0 0 79.607082c0 42.241057-40.61707 42.241057-40.61707 42.241057L146.453537 760.059656 146.453537 760.059656z" p-id="24615"></path><path d="M231.012398 78.310553l-67.61598 0c-4.502547 0-8.18645-3.683902-8.18645-8.18645l0-1.079588c0-4.502547 3.683902-8.18645 8.18645-8.18645l67.61598 0c4.502547 0 8.18645 3.683902 8.18645 8.18645l0 1.079588C239.198847 74.626651 235.514945 78.310553 231.012398 78.310553z" p-id="24616"></path></svg>