<?xml version="1.0" standalone="no"?><!DOCTYPE svg PUBLIC "-//W3C//DTD SVG 1.1//EN" "http://www.w3.org/Graphics/SVG/1.1/DTD/svg11.dtd"><svg t="1493196208790" class="icon" style="" viewBox="0 0 1024 1024" version="1.1" xmlns="http://www.w3.org/2000/svg" p-id="16039" xmlns:xlink="http://www.w3.org/1999/xlink" width="200" height="200"><defs><style type="text/css"></style></defs><path d="M604.068905 692.927699c-9.379625 8.78406-21.592784 13.388938-34.461883 12.968359-11.620665-0.38067-22.451338-4.869914-30.919197-12.659321-1.073448-1.958608-2.376117-3.828188-3.973498-5.533017-38.579667-41.193191-103.482863-43.328831-144.677077-4.748141-0.00614 0.00614-0.011256 0.01228-0.017396 0.01842-9.378601 8.776897-21.649066 13.400195-34.447557 12.95301-12.844539-0.420579-24.756847-5.817496-33.539884-15.196097-10.238179-10.939143-27.402093-11.498892-38.33612-1.261737-10.934027 10.240225-11.496845 27.403117-1.257643 38.33612 18.687618 19.957541 44.030819 31.44313 71.356165 32.339546 1.149173 0.036839 2.293229 0.056282 3.438309 0.056282 26.033933 0 50.706869-9.726525 69.814042-27.590382 0.022513-0.020466 0.047072-0.037862 0.068562-0.058328 18.469654-17.300015 47.052642-17.149589 65.393359-0.290619 1.071402 1.951445 2.371 3.814886 3.962242 5.51562 18.689664 19.954471 44.030819 31.439036 71.358211 32.333406 1.149173 0.039909 2.294252 0.056282 3.440355 0.056282 26.065655 0 50.764174-9.743922 69.88158-27.64871 19.357883-18.137079 49.867758-17.133216 68.006883 2.231831 5.340635 5.700839 12.561084 8.581446 19.801998 8.581446 6.641257 0 13.302981-2.427282 18.534122-7.326872 10.93198-10.240225 11.494799-27.403117 1.254573-38.33612C710.170408 656.472416 645.265166 654.345985 604.068905 692.927699z" p-id="16040"></path><path d="M419.123706 405.919986c-10.593266 10.591219-10.593266 27.764344 0 38.355563 5.29561 5.29561 12.236696 7.943926 19.177781 7.943926 6.941086 0 13.882172-2.648316 19.177781-7.943926 48.50983-48.507784 48.50983-127.437437 0-175.946244-13.252839-13.252839-20.552082-30.873148-20.552082-49.616024s7.29822-36.364209 20.552082-49.617048c10.593266-10.591219 10.593266-27.764344 0-38.355563-10.591219-10.591219-27.764344-10.591219-38.355563 0-23.49818 23.49818-36.439934 54.740742-36.439934 87.972611s12.941753 64.47443 36.439934 87.971587C446.482821 334.043982 446.482821 378.561895 419.123706 405.919986z" p-id="16041"></path><path d="M593.58411 405.919986c-10.591219 10.591219-10.591219 27.764344 0 38.355563 5.297656 5.29561 12.236696 7.943926 19.179828 7.943926 6.943133 0 13.882172-2.648316 19.179828-7.943926 48.50676-48.507784 48.50676-127.437437 0-175.946244-27.357068-27.359115-27.357068-71.873957 0-99.233072 10.591219-10.593266 10.591219-27.76639-0.00307-38.35761-10.588149-10.591219-27.761274-10.589173-38.355563 0.002047-48.50369 48.50983-48.50369 127.437437 0 175.944198C620.944248 334.043982 620.944248 378.561895 593.58411 405.919986z" p-id="16042"></path><path d="M959.116247 439.884542l-33.246195 0c0.116657-1.76418 0.191358-3.532453 0.191358-5.310959 0-29.795607-16.503882-73.197092-95.135754-110.759593-13.511735-6.450922-29.707602-0.731664-36.163641 12.783141-6.456039 13.516852-0.734734 29.706579 12.783141 36.163641 40.845267 19.512403 64.272839 42.042535 64.272839 61.812811 0 1.460258-0.130983 2.938935-0.38374 4.432962l-3.195785 0.438998c0.327458 2.38635 0.579191 4.78498 0.862647 7.178493-20.074198 46.108131-150.959154 102.20066-353.707834 102.20066-202.682165 0-333.544609-56.054667-353.687368-102.153588 0.284479-2.408863 0.538259-4.822842 0.867764-7.223518l-3.222391-0.443092c-0.252757-1.493004-0.382717-2.970658-0.382717-4.430916 0-20.134573 25.362644-43.87016 67.845201-63.491033 13.598716-6.281053 19.530822-22.396079 13.249769-35.994796-6.282077-13.600763-22.401196-19.530822-35.994796-13.249769-82.110089 37.924751-99.343589 82.239026-99.343589 112.736621 0 1.777483 0.074701 3.546779 0.191358 5.310959L71.696925 439.885566c-14.980179 0-27.121707 12.142551-27.121707 27.121707 0 14.980179 12.142551 27.121707 27.121707 27.121707l33.07735 0c0.762363 136.715755 66.063625 264.922718 175.097924 343.578126l-0.014326 0.022513c0.071631 0.045025 0.147356 0.085958 0.218988 0.12996 0.207731 0.149403 0.407276 0.306992 0.615007 0.455371l0.046049-0.063445c64.402799 39.784098 147.678434 61.697177 234.652298 61.697177 86.983073 0 170.267918-21.918195 234.672764-61.71048l0.054235 0.075725c0.24764-0.178055 0.487094-0.366344 0.734734-0.544399 0.022513-0.014326 0.047072-0.026606 0.069585-0.040932l12.799514-8.035 0-1.62808c101.325733-79.249949 161.584142-202.660676 162.315806-333.936535l33.07735 0c14.978133 0 27.121707-12.142551 27.121707-27.121707C986.237955 452.02607 974.09438 439.884542 959.116247 439.884542zM720.754464 792.566c-55.846936 34.263361-128.676661 53.138244-205.363228 53.138244-76.618005 0-149.386332-18.844184-205.214848-53.05024-86.571704-63.105247-141.175323-162.340365-149.922545-270.292006 19.877723 14.005992 44.836161 26.674523 74.54888 37.626969 75.370595 27.780717 175.019129 43.080168 280.588513 43.080168 105.568361 0 205.216895-15.299451 280.58749-43.080168 29.729092-10.957563 54.697763-23.633257 74.580602-37.647435C861.82234 630.251218 807.262724 729.452567 720.754464 792.566z" p-id="16043"></path></svg>