<?xml version="1.0" standalone="no"?><!DOCTYPE svg PUBLIC "-//W3C//DTD SVG 1.1//EN" "http://www.w3.org/Graphics/SVG/1.1/DTD/svg11.dtd"><svg t="1493196416254" class="icon" style="" viewBox="0 0 1024 1024" version="1.1" xmlns="http://www.w3.org/2000/svg" p-id="22643" xmlns:xlink="http://www.w3.org/1999/xlink" width="200" height="200"><defs><style type="text/css"></style></defs><path d="M481.382679 963.611631c-25.923416 0-51.928696-2.252297-77.889975-6.763031-60.044538-10.431583-116.260887-32.31908-167.086459-65.052598-49.081858-31.610952-91.081415-71.948659-124.831077-119.892601-33.749662-47.943942-57.55688-101.087303-70.759577-157.955498-13.671371-58.888202-15.313777-119.192659-4.881171-179.237197 10.432607-60.044538 32.31908-116.260887 65.053622-167.086459 31.610952-49.081858 71.947636-91.081415 119.891578-124.831077s101.088326-57.55688 157.955498-70.759577c58.887178-13.671371 119.192659-15.313777 179.237197-4.881171 12.141528 2.110057 20.274766 13.662161 18.164708 25.803689-2.110057 12.141528-13.661138 20.278859-25.803689 18.163685-107.082854-18.603707-214.993562 5.603625-303.865659 68.164472-88.871073 62.560848-148.061151 155.985634-166.665881 263.065418-38.404682 221.046419 110.183472 432.124811 331.22989 470.530516 107.078761 18.606777 214.993562-5.604648 303.865659-68.164472s148.061151-155.986657 166.665881-263.064394c2.110057-12.141528 13.662161-20.278859 25.803689-18.164708 12.141528 2.110057 20.274766 13.662161 18.164708 25.803689-10.431583 60.044538-32.31908 116.260887-65.052598 167.086459-31.610952 49.081858-71.948659 91.081415-119.892601 124.831077s-101.088326 57.55688-157.955498 70.758554C549.302581 959.727161 515.414773 963.611631 481.382679 963.611631z" p-id="22644"></path><path d="M102.814644 697.114045l-32.588209-30.489408 254.057253-271.547603c8.077979-8.633634 21.488407-9.466606 30.572296-1.902326l178.916902 148.983149 422.937568-422.936545 31.556717 31.555693L550.925544 588.117608c-8.15882 8.157797-21.189601 8.751315-30.05655 1.369184L342.483188 440.945711 102.814644 697.114045z" p-id="22645"></path><path d="M972.487789 316.116681c-12.323677 0-22.314215-9.990538-22.314215-22.314215L950.173574 157.312862 802.222941 157.312862c-12.323677 0-22.314215-9.989515-22.314215-22.313192s9.990538-22.313192 22.314215-22.313192L994.800981 112.686479l0 181.115987C994.800981 306.126142 984.811466 316.116681 972.487789 316.116681z" p-id="22646"></path></svg>