<?xml version="1.0" standalone="no"?><!DOCTYPE svg PUBLIC "-//W3C//DTD SVG 1.1//EN" "http://www.w3.org/Graphics/SVG/1.1/DTD/svg11.dtd"><svg t="1493195949618" class="icon" style="" viewBox="0 0 1117 1024" version="1.1" xmlns="http://www.w3.org/2000/svg" p-id="10709" xmlns:xlink="http://www.w3.org/1999/xlink" width="218.1640625" height="200"><defs><style type="text/css"></style></defs><path d="M733.462939 867.467242l51.665431 77.498147A510.417223 510.417223 0 0 1 511.534313 1023.999535C228.863896 1023.999535 0 794.623639 0 511.999767S228.863896 0 511.487768 0C794.623639 0 1023.999535 229.375896 1023.999535 511.999767c0 7.819633-0.186182 15.546175-0.512 23.272717h-93.230503c0.465454-7.726542 0.651636-15.453084 0.651636-23.272717 0-231.284259-187.764278-418.9089-419.4209-418.9089C280.389691 93.090867 93.090867 280.668963 93.090867 511.999767s187.298824 418.9089 418.396901 418.908901c81.501054 0 157.602837-23.272717 222.021717-63.441426z" fill="#515151" p-id="10710" class="selected"></path><path d="M535.272484 279.2726H465.454334v279.272601l244.363525 146.618115 34.909075-57.250883-209.45445-124.276307zM837.817801 511.999767h279.2726l-139.6363 186.181734z" fill="#515151" p-id="10711" class=""></path></svg>