<?xml version="1.0" standalone="no"?><!DOCTYPE svg PUBLIC "-//W3C//DTD SVG 1.1//EN" "http://www.w3.org/Graphics/SVG/1.1/DTD/svg11.dtd"><svg t="1493196060395" class="icon" style="" viewBox="0 0 1024 1024" version="1.1" xmlns="http://www.w3.org/2000/svg" p-id="13509" xmlns:xlink="http://www.w3.org/1999/xlink" width="200" height="200"><defs><style type="text/css"></style></defs><path d="M970.472727 808.727273c-1.163636-2.327273-1.163636-4.654545-2.327273-5.818182L474.763636 57.018182c-4.654545-6.981818-11.636364-10.472727-19.781818-10.472727L145.454545 46.545455c-11.636364 0-20.945455 8.145455-23.272727 18.618182L89.6 224.581818c-1.163636 6.981818 0 13.963636 5.818182 19.781818l74.472727 84.945455c5.818182 6.981818 16.290909 9.309091 25.6 6.981818l134.981818-48.872727 108.218182 245.527273c-69.818182-44.218182-130.327273-41.890909-162.909091-39.563636-4.654545 0-9.309091 0-12.8 0C215.272727 493.381818 46.545455 550.4 46.545455 729.6 46.545455 946.036364 257.163636 977.454545 259.490909 977.454545c1.163636 0 2.327273 0 3.490909 0l599.272727 0c43.054545 0 74.472727-13.963636 94.254545-40.727273C992.581818 887.854545 970.472727 812.218182 970.472727 808.727273zM918.109091 909.963636C907.636364 923.927273 889.018182 930.909091 862.254545 930.909091L264.145455 930.909091C246.690909 928.581818 93.090909 898.327273 93.090909 729.6c0-154.763636 147.781818-189.672727 169.890909-189.672727 4.654545 0 9.309091 0 15.127273 0 40.727273-2.327273 116.363636-4.654545 203.636364 89.6l73.309091 165.236364c3.490909 8.145455 12.8 13.963636 20.945455 13.963636 3.490909 0 5.818182-1.163636 9.309091-2.327273 11.636364-4.654545 17.454545-18.618182 11.636364-30.254545L523.636364 610.909091c-1.163636-2.327273-1.163636-4.654545-3.490909-6.981818L374.690909 272.290909l57.018182-20.945455c11.636364-4.654545 18.618182-17.454545 13.963636-30.254545-4.654545-11.636364-17.454545-18.618182-30.254545-13.963636l-221.090909 80.290909-57.018182-65.163636L164.072727 93.090909l279.272727 0 482.909091 731.927273C930.909091 843.636364 936.727273 885.527273 918.109091 909.963636z" p-id="13510"></path></svg>