<?xml version="1.0" standalone="no"?><!DOCTYPE svg PUBLIC "-//W3C//DTD SVG 1.1//EN" "http://www.w3.org/Graphics/SVG/1.1/DTD/svg11.dtd"><svg t="1493195711941" class="icon" style="" viewBox="0 0 1024 1024" version="1.1" xmlns="http://www.w3.org/2000/svg" p-id="5789" xmlns:xlink="http://www.w3.org/1999/xlink" width="200" height="200"><defs><style type="text/css"></style></defs><path d="M521.791187 325.116047l-41.23245 0L480.558736 387.998575l46.584155 0 0 38.07008-256.638556 0L270.504335 387.998575l46.584155 0 0-63.004157L275.247892 324.994417 275.247892 287.045967l41.840599 0 0-43.421784 38.07008 0L355.15857 287.045967l87.330087 0 0-43.421784 38.07008 0L480.558736 287.045967l41.23245 0L521.791187 325.116047zM468.88229 717.736548 468.88229 498.073405 328.764936 498.073405l0 219.541513-38.07008 0L290.694857 460.003326l216.379142 0 0 257.611593L468.88229 717.614919zM355.15857 387.998575l87.330087 0 0-63.004157-87.330087 0L355.15857 387.998575zM407.580948 601.336976l-44.394821-45.002969 27.001782-26.515263 43.908303 44.394821L407.580948 601.336976zM407.580948 689.153581 363.064497 644.63713l27.001782-27.001782 43.908303 45.002969L407.580948 689.153581zM745.103219 334.60316l-36.488894 0 0 170.403136-48.16534 72.004751 76.140159 114.331868-31.258819 20.67704L637.70424 611.310607l-66.653047 100.466089-31.745338-20.67704 75.653641-114.331868-47.557192-72.004751 0-104.236608 38.07008 0L605.472384 493.816368l32.231857 49.260007 32.840005-49.260007L670.544245 334.60316l-90.978976 0-23.231263 45.002969-34.42119-16.906521 27.001782-51.81423 0-66.166528 38.07008 0 0 51.81423 158.240171 0L745.224849 334.60316z" p-id="5790"></path></svg>