<?xml version="1.0" standalone="no"?><!DOCTYPE svg PUBLIC "-//W3C//DTD SVG 1.1//EN" "http://www.w3.org/Graphics/SVG/1.1/DTD/svg11.dtd"><svg t="1493195767113" class="icon" style="" viewBox="0 0 1024 1024" version="1.1" xmlns="http://www.w3.org/2000/svg" p-id="6493" xmlns:xlink="http://www.w3.org/1999/xlink" width="200" height="200"><defs><style type="text/css"></style></defs><path d="M837.12 151.552h-267.264c-32.768 0-58.88 26.112-58.88 58.88 0-32.768-26.624-58.88-58.88-58.88H186.88c-32.768 0-58.88 26.112-58.88 58.88v529.92c0 32.768 26.112 58.88 58.88 58.88h265.216c19.968 0 40.96 20.992 44.544 45.056 2.56 16.896 0.512 28.672 0.512 28.672h28.672c-3.584-16.896 0-27.648 0-27.648 5.12-16.896 24.576-46.08 44.544-46.08h267.264c32.768 0 58.88-26.624 58.88-58.88V210.432c-0.512-32.768-27.136-58.88-59.392-58.88zM488.448 781.824s-26.112-29.696-58.88-29.696H200.192c-2.56 0-24.064-8.704-24.064-24.064V223.744c0-12.288 16.384-24.064 24.064-24.064h229.376c32.768 0 58.88 26.624 58.88 58.88v523.264z m360.96-53.248c0 9.728-17.92 24.064-24.064 24.064h-230.4c-32.768 0-58.88 29.696-58.88 29.696V258.048c0-32.768 26.624-58.88 58.88-58.88H680.96v194.048l48.64-49.664 47.104 48.64V199.168h48.128c12.288 0 24.064 15.36 24.064 24.064l0.512 505.344z" p-id="6494"></path></svg>