<?xml version="1.0" standalone="no"?><!DOCTYPE svg PUBLIC "-//W3C//DTD SVG 1.1//EN" "http://www.w3.org/Graphics/SVG/1.1/DTD/svg11.dtd"><svg t="1493196308463" class="icon" style="" viewBox="0 0 1024 1024" version="1.1" xmlns="http://www.w3.org/2000/svg" p-id="18398" xmlns:xlink="http://www.w3.org/1999/xlink" width="200" height="200"><defs><style type="text/css"></style></defs><path d="M512 925.184c-6.144 0-9.728-2.048-15.36-4.608-117.76-68.608-217.6-148.48-288.768-230.4l-0.512-0.512-0.512-0.512c-4.608-4.608-9.216-9.728-13.824-15.36-4.608-5.632-9.728-11.264-14.848-16.384-2.56-4.096-3.584-9.728-2.56-14.336 0.512-3.584 2.56-6.144 5.12-8.192l1.536-1.024 1.536-1.536c2.56-2.56 5.632-3.584 8.704-3.584 4.096 0 7.68 2.048 10.24 5.12 7.168 10.752 17.92 21.504 27.648 31.232 93.184 105.472 206.848 177.664 262.144 212.992 4.096 2.56 7.68 5.12 11.264 7.168l8.192 5.12 8.192-4.608c7.168-4.096 181.76-104.96 301.056-250.88 71.68-88.576 105.984-177.152 102.4-264.192-3.584-113.152-90.112-211.968-201.216-229.376-15.872-3.072-32.256-4.608-48.64-4.608-55.808 0-108.032 18.432-151.552 53.76-3.584 2.56-7.68 4.096-11.776 4.096-4.096 0-8.192-1.536-11.776-4.096-43.52-35.328-96.768-53.76-154.112-53.76-16.384 0-33.28 1.536-49.664 4.608-109.056 22.016-194.048 125.44-194.048 236.544 0 31.232 5.632 68.096 16.896 109.568l7.168 26.112 108.032-108.032c3.584-3.584 7.68-5.12 11.776-5.12 4.096 0 8.192 2.048 11.776 5.12l119.808 119.808 153.088-153.088c3.584-3.584 7.68-5.12 11.776-5.12 4.096 0 8.192 2.048 11.776 5.12 3.584 3.584 5.12 7.68 5.12 11.776 0 4.096-2.048 8.192-5.12 11.776l-164.864 164.864c-3.584 3.584-7.68 5.12-11.776 5.12-4.096 0-8.192-2.048-11.776-5.12L248.832 437.248l-113.664 113.664c-3.072 3.072-8.192 5.12-15.872 5.12-6.144-2.56-10.752-6.144-11.776-7.68-27.136-53.76-40.96-113.152-40.96-171.008 3.072-134.144 95.232-245.76 224.256-271.36 18.944-4.096 38.4-6.144 57.856-6.144 54.272 0 108.032 15.872 154.624 46.592l8.704 5.632 8.704-5.632c48.128-31.232 103.936-48.128 160.768-48.128 16.384 0 32.768 1.536 48.64 4.096 127.488 25.6 221.184 133.12 227.328 262.656 3.072 96.768-34.304 193.024-111.616 285.696-102.4 129.536-251.392 223.744-307.2 259.584-4.096 2.56-8.192 5.12-11.776 7.68l-1.536 1.024-1.024 1.024c-4.608 4.096-7.168 5.12-12.288 5.12z" fill="" p-id="18399"></path></svg>