<?xml version="1.0" standalone="no"?><!DOCTYPE svg PUBLIC "-//W3C//DTD SVG 1.1//EN" "http://www.w3.org/Graphics/SVG/1.1/DTD/svg11.dtd"><svg t="1493196294487" class="icon" style="" viewBox="0 0 1024 1024" version="1.1" xmlns="http://www.w3.org/2000/svg" p-id="17871" xmlns:xlink="http://www.w3.org/1999/xlink" width="200" height="200"><defs><style type="text/css"></style></defs><path d="M815.663044 91.396593H208.336956c-64.583924 0-116.940362 52.355415-116.940363 116.940363v607.326088c0 64.583924 52.355415 116.940362 116.940363 116.940363h607.326088c64.583924 0 116.940362-52.356438 116.940363-116.940363V208.336956c-0.001023-64.583924-52.356438-116.940362-116.940363-116.940363z m-453.621404 337.536526c0-82.652442 67.24145-149.893892 149.892868-149.893892S661.827377 346.280678 661.827377 428.933119s-67.24145 149.893892-149.892869 149.893892-149.892869-67.24145-149.892868-149.893892z m386.034077 444.980607H275.794323c6.514367-124.607996 109.938901-223.984331 236.140185-223.98433s229.626841 99.376335 236.141209 223.98433z m125.838009-58.249658c0 32.1707-26.079982 58.250682-58.251705 58.250682h-8.850575c-5.060249-120.94763-83.237773-223.307925-191.388958-263.931135 62.739926-36.002982 105.09457-103.672174 105.094569-181.050496 0-115.013477-93.570095-208.583572-208.582549-208.583572S303.352983 313.919642 303.352983 428.933119c0 77.378321 42.35362 145.047514 105.09457 181.050496-108.150162 40.624233-186.327686 142.983505-191.387935 263.931135h-8.721639c-32.171724 0-58.251705-26.079982-58.251705-58.250682V208.335932c0-32.1707 26.079982-58.250682 58.251705-58.250682h607.326089c32.171724 0 58.251705 26.079982 58.251705 58.250682v607.328136z" fill="#272636" p-id="17872"></path></svg>